<?xml version="1.0" encoding="UTF-8"?>
<svg width="1200pt" height="1200pt" version="1.1" viewBox="0 0 1200 1200" xmlns="http://www.w3.org/2000/svg">
 <path d="m825.82 872.54c67.504-72.621 63.34-186.62-9.2812-254.12-35.18-32.699-81.016-49.715-128.98-47.988-24.598 0.89844-48.246 6.707-69.871 16.863 18.562 1.4844 36.77 8.957 51.434 22.59 34.613 32.172 36.598 86.504 4.4258 121.11-15.582 16.766-36.762 26.461-59.637 27.297-1.0703 0.039062-2.1406 0.058593-3.207 0.058593-21.703 0-42.285-8.0742-58.266-22.93-14.652-13.617-23.434-31.215-26.273-49.598-14.719 38.379-16.027 81.285-2.4648 121.68 13.02 13.844 26.961 27.438 41.957 40.66 35.973 31.723 74.875 58.867 116.48 81.371 54.32 3.582 106.61-17.09 143.69-56.988z"/>
 <path d="m868.64 1015.7c-120.64-22.863-226.97-74.273-316.02-152.8-226.9-200.09-226.6-479.17-224.24-533.08 0.23828-5.4258 4.8164-9.6602 10.258-9.3945 5.4258 0.23828 9.6328 4.8281 9.3945 10.258-0.60547 13.848-1.0703 43 2.6484 81.977 7.5586-6.9648 15.727-13.293 24.469-18.883 81.039-49.344 190.75-27.098 242.12 53.227 21.047 32.902 30.379 71.434 26.922 109.95 13.793-3.5352 28.051-5.6641 42.621-6.1953 53.293-1.9414 104.07 16.965 143.1 53.238 43.285 40.234 64.613 95.359 63.5 150.25 43.879-11.277 90.641-5.2422 130.31 17.309 84.027 47.773 113.52 155 65.754 239.03-10.309 18.133-23.449 33.898-39.105 47.129 30.633 15.918 59.844 34.312 87.438 55.035 6.5078-19.055 11.293-38.504 14.199-58.004 20.633-138.37-47.43-301.07-186.74-446.38-135.85-141.71-320.83-244.48-494.82-274.91-13.969-2.4453-28.227-4.4961-42.387-6.1055-12.953-1.4688-24.977-6.7812-34.766-15.355l-22.578-19.781c-14.453-12.66-35.211-14.496-51.656-4.5625-15.684 9.4688-23.895 27.922-20.43 45.91l4.7344 24.59c1.9141 9.9414 1.4609 20.172-1.3164 29.59-35.289 119.66-36.609 245.24-3.9258 363.55 17.301 3.7344 34.324 10 50.598 18.867l7.2305 4.1445c79.078 47.656 111.3 144.75 79.742 228.95 16.848 18.602 34.965 36.273 53.957 52.559 177.06 151.86 388.93 152.16 499.45 138.82 68.598-8.2734 136.64-11.328 202.56-9.0781-87.395-87.684-198.74-146.29-323.03-169.85z"/>
 <path d="m280.81 897.01c14.395 8.25 31.148 10.406 47.164 6.0664 16.016-4.3438 29.383-14.66 37.641-29.059v-0.003906c8.2539-14.395 10.41-31.148 6.0664-47.164-4.0664-14.996-13.371-27.664-26.355-35.996-0.90625-0.54297-1.7852-1.1172-2.7031-1.6445-9.7188-5.5742-20.328-8.2227-30.805-8.2227-21.555 0-42.531 11.211-54.004 31.211-17.039 29.723-6.7227 67.766 22.996 84.812z"/>
 <path d="m247.53 208.2c3.9258-20.523 12.32-48.531 30.227-76.098-0.62109-16.957-0.48828-34.094 0.4375-51.004 1.0664-19.434 3.1797-39.039 6.2812-58.277 0.68359-4.2305-0.35937-8.4609-2.9258-11.914-2.6055-3.5-6.4258-5.7461-10.758-6.3164l-33.656-4.4492c-8.5859-1.1328-16.434 4.6211-17.828 13.113-3.125 19.043-5.2461 38.461-6.3008 57.707-1.9609 35.656-0.30859 71.672 4.8359 107.12 10.793 8.8945 20.75 18.984 29.688 30.113z"/>
 <path d="m382.68 883.8c-10.871 18.953-28.469 32.543-49.559 38.262-7.1211 1.9297-14.352 2.8867-21.535 2.8867-14.094 0-28.008-3.6758-40.562-10.875-39.133-22.438-52.711-72.527-30.273-111.66 8.9102-15.535 22.34-27.457 38.504-34.402-6.9805-0.86719-13.977-1.3047-20.953-1.3047-59.008 0-116.44 30.688-147.84 85.445-46.652 81.355-18.418 185.5 62.941 232.15 81.355 46.648 185.5 18.418 232.15-62.945 35.105-61.223 27.793-135.34-12.641-188.16 2.1719 17.457-1.332 35.066-10.238 50.598z"/>
 <path d="m193.46 313.46c4.5977-0.25 8.6758 2.7188 9.9375 7.1133 1.2578 4.3906-0.66797 9.0703-4.6523 11.301-26.527 14.832-49.172 35.699-65.492 60.332-32.621 49.242-32.629 101.86-30.012 127.7 26.176 5.707 80.254 11.738 133.75-17.453 8.3516-4.5586 16.367-9.8594 23.938-15.715 4.6914-35.129 12.105-70.086 22.27-104.55 1.8906-6.4141 2.1914-13.438 0.86719-20.305l-4.7344-24.59c-5.0156-26.051 6.8672-52.762 29.574-66.473 23.809-14.379 53.863-11.727 74.789 6.6055l22.578 19.781c6.7617 5.9258 15.066 9.5898 24.02 10.605 14.551 1.6562 29.203 3.7656 43.559 6.2773 15.523 2.7148 31.07 5.9922 46.621 9.7383 20.062-10.379 33.52-24.938 41.215-35.242-9.6133-13.949-27.793-34.648-57.191-47.812-32.414-14.516-62.582-12.664-77.676-10.273-3.668 0.57812-7.3516-0.95312-9.5234-3.9648-2.1719-3.0156-2.4609-6.9961-0.74219-10.293 12.477-23.961 20.02-50.855 21.809-77.773 1.6836-25.328-1.6758-51.234-9.7266-75.383-24.676 2.2891-65.152 11.137-101.72 42.43-54.402 46.555-61.98 110.87-63.008 129.47-0.23438 4.2852-3.2227 7.9219-7.3789 8.9844-4.1602 1.0547-8.5273-0.6875-10.793-4.332-12.562-20.184-35.172-48.176-71.531-66.918-69.312-35.727-140.62-12.941-165.88-2.6484 5.1055 23.973 20.223 69.496 64.094 104.44 47.922 38.164 100.62 39.945 121.05 38.949z"/>
 <path d="m548 614.31c21.32-22.938 47.164-40.137 75.641-50.855 5.2891-36.906-2.75-74.285-22.93-105.84-34.262-53.566-96.078-79.039-155.21-69.852 13.785 5.7578 26.023 15.598 34.66 29.109 22.586 35.312 12.23 82.418-23.082 105-12.656 8.0938-26.828 11.957-40.84 11.957-17.215 0-34.191-5.832-47.832-16.809 13.457 54.73 35.367 116 70.762 176.99 21.008 4.1836 42.789 4.0078 63.617-0.52734 8.6055-28.992 23.816-56.152 45.219-79.18z"/>
 <path d="m809.3 913.05c3.918 4.2656 8.4727 7.8984 13.641 10.836 13.086 7.4375 28.281 9.3359 42.793 5.3477 14.512-3.9922 26.602-13.398 34.043-26.48 15.355-27.008 5.8711-61.477-21.137-76.832-0.007812-0.003907-0.015625-0.007813-0.023437-0.011719-8.8398 21.586-21.602 41.973-38.395 60.039-9.4727 10.184-19.84 19.238-30.922 27.102z"/>
 <path d="m872.3 996.38c55.723 10.562 108.91 27.977 158.66 51.695 16.891-12.742 30.832-28.574 41.422-47.199 42.41-74.598 16.227-169.79-58.375-212.2-37.156-21.125-81.332-25.941-122.11-13.578-1.3516 10.824-3.5742 21.555-6.6992 32.09 1.0586 0.53906 2.1328 1.0391 3.1641 1.625 36.438 20.719 49.23 67.219 28.516 103.66-10.039 17.652-26.348 30.344-45.922 35.727-6.7031 1.8438-13.516 2.7578-20.281 2.7578-13 0-25.844-3.3672-37.453-9.9648-7.875-4.4805-14.902-10.363-20.695-17.266-3.5938 2.043-7.25 3.957-10.957 5.7656 0.56641 15.742 3.5156 31.199 8.7539 46.098 26.492 8.5117 53.828 15.461 81.977 20.797z"/>
 <path d="m565.81 721.01c12.918 12.008 29.723 18.242 47.363 17.621 17.625-0.64453 33.941-8.1133 45.949-21.031 24.785-26.664 23.254-68.523-3.4102-93.309-12.695-11.797-28.832-17.633-44.93-17.633-17.719 0-35.395 7.0742-48.383 21.047-24.781 26.66-23.254 68.52 3.4102 93.305z"/>
 <path d="m446.48 505.3c26.176-16.742 33.848-51.652 17.109-77.828-10.742-16.793-28.965-25.973-47.559-25.973-10.387 0-20.891 2.8633-30.27 8.8633-12.68 8.1094-21.445 20.668-24.676 35.371-3.2305 14.699-0.54688 29.777 7.5625 42.457 16.746 26.176 51.66 33.855 77.832 17.109z"/>
 <path d="m767.4 967.77c-2.5586-9.8828-4.2539-19.941-5.0547-30.125-13.891 5.0469-28.359 8.5234-43.176 10.375 15.734 7.2031 31.809 13.793 48.23 19.75z"/>
 <path d="m469.74 716.76c-5.7656 0-11.527-0.33203-17.27-0.89453 12.969 20.383 27.523 40.633 43.848 60.512-2.7656-20.734-2.2227-41.598 1.4531-61.871-9.2539 1.4961-18.641 2.2539-28.031 2.2539z"/>
</svg>
