<?xml version="1.0" encoding="UTF-8"?>
<svg width="1200pt" height="1200pt" version="1.1" viewBox="0 0 1200 1200" xmlns="http://www.w3.org/2000/svg">
 <path d="m1108 402.56c-8.2305-53.641-41.102-93.816-85.164-114.8 20.723-15.77 36.551-37.871 43.836-65.461 18.238-69.047-26.902-137.9-100.21-141.01-65.195-2.7617-112.49 70.777-81.254 127.99 33.012 60.457 116.41 43.727 131.24-19.535 6.625-28.273-37.957-34.488-44.531-6.457-7.5977 32.41-39.613 18.961-49.488 0.86328-7.7148-14.137-0.43359-30.277 7.7773-41.734 22.766-31.754 66.527-12.926 85.512 11.039 35.941 45.383-5.0508 97.043-51 112.8-2.8203-0.42188-5.8203-0.50391-9.1211-0.023437-51.816 7.5117-105.54 19.141-159.65 34.285-23.879-7.3203-49.727-9.0234-75.012-3.793-37.535 7.7773-67.332 30.504-86.617 60.301-43.824 18.504-86.867 39.422-128.46 62.797-17.594-2.7461-35.809-2.5547-53.723 1.1523-56.016 11.605-94.906 56.352-106.95 108.53-32.578 27.098-62.879 56.148-90.527 87.023-8.3047 0.28906-16.645 1.2109-24.91 2.9297-78.422 16.234-123.59 97.391-107.93 173.04 1.7383 8.3984 4.3672 16.32 7.5117 23.93-32.258 83.508-45.527 175.63-33.156 276 3 24.324 38.281 37.129 53.23 14.965 106.54-157.91 265.2-294.98 439.87-370.11 105.21-45.254 233.84-42.59 322.16-123.18 75.227-68.652 84.098-177.05 80.258-275.04 29.137 11.797 51.406 36.422 56.723 71.016 5.875 38.098 65.453 30.824 59.574-7.5156zm-176.55-71.734c1.5352 31.859 1.6797 64.512-1.6914 96.047-10.824 1.7383-21.684 3.6133-32.617 5.6289-0.19141-9.1797-1.2109-18.492-3.1445-27.863-4.8008-23.184-15.371-43.355-29.699-60.012 22.645-5.293 45.094-9.9492 67.152-13.801zm-206.66 26.988c44.172-18.996 90.77 10.355 108.1 50.664 5.3047 12.324 6.8516 24.492 5.6523 36.086-49.621 11.281-99.742 25.32-149.33 42.422-30.184-39.352-25.91-102.73 35.578-129.17zm-104.09 154.92c-8.7852-25.727-24.898-47.102-45.324-63.035 11.543-5.8672 23.16-11.566 34.883-17.062-0.5625 12.324 0.21484 24.781 2.7734 37.105 3.0117 14.555 8.5195 27.781 15.59 39.84-2.6406 1.0547-5.2812 2.0859-7.9219 3.1523zm-164.7-30.684c44.172-18.996 90.77 10.355 108.1 50.664 0.58984 1.3672 0.92578 2.7344 1.4141 4.1055-49.199 22.848-96.73 49.008-141.53 78.492-33.863-38.867-31.719-105.85 32.016-133.26zm-83.809 169.86c-2.6523 2.0156-5.2812 4.043-7.8945 6.0859-12.086-11.676-26.23-21.109-41.605-28.043 8.0039-8.1719 16.176-16.223 24.602-24.086 5.2891 17.34 13.906 32.773 24.898 46.043zm-138.57 28.621c30.133-12.961 61.32-3.3594 83.641 16.812-41.195 37.105-78.133 78.047-109.48 123.01-40.215-37.391-41.617-110.82 25.836-139.82zm-59.293 193.19c-1.1172 2.0039-2.1719 4.0547-3.2656 6.0703 0.67188-2.3633 1.2969-4.7383 2.0039-7.0938 0.43359 0.32813 0.82813 0.69922 1.2617 1.0234zm648.27-271.15c-48.469 24.395-102.85 32.508-154.95 45.434-65.832 16.32-128 43.297-187.23 76.008-99.203 54.781-193.64 129.65-273.56 215.47 119.12-261.28 439.04-401.7 710.02-449.61-15.094 46.73-43.344 87.062-94.273 112.69z"/>
</svg>
