<?xml version="1.0" encoding="UTF-8"?>
<svg width="1200pt" height="1200pt" version="1.1" viewBox="0 0 1200 1200" xmlns="http://www.w3.org/2000/svg">
 <path d="m797.58 677.16-293.72 293.72c-9.7969 9.8438-23.109 15.328-36.938 15.281h-460.18v58.031l460.18 0.046876c29.25 0.046874 57.328-11.578 78-32.297l278.44-278.44h369.89v-58.031h-391.6c-1.5469 0-3 0.60938-4.0781 1.6875z"/>
 <path d="m777.61 466.45c-29.25-0.046875-57.328 11.578-77.953 32.344l-278.44 278.44-414.47-0.046875v58.078h436.13c1.5469-0.046875 3-0.65625 4.0781-1.7344l293.72-293.72c9.7969-9.7969 23.109-15.328 36.938-15.281h415.64v-58.078z"/>
 <path d="m503.86 229.13 223.78 223.78c15.891-6.375 32.859-9.6562 49.969-9.6562h22.453l-255.14-255.19c-20.672-20.719-48.75-32.344-78-32.297h-460.18v58.031l460.18 0.046875c13.828-0.046875 27.141 5.4375 36.938 15.281z"/>
 <path d="m582 583.6 41.062-41.062-176.06-176.06h-0.046875c-1.0781-1.0781-2.5312-1.6875-4.0781-1.7344h-436.13v58.031l414.47 0.046875z"/>
 <path d="m6.75 858.47h184.6v104.48h-184.6z"/>
 <path d="m214.55 858.47h139.31v104.48h-139.31z"/>
 <path d="m487.45 954.47 28.969-28.969v-128.58l-53.062 53.062c-5.4375 5.3906-12.797 8.4375-20.484 8.4844h-65.766v104.48h89.812c7.6875 0 15.094-3.0469 20.531-8.4844z"/>
 <path d="m539.63 773.72v128.53l141.66-141.66v-128.53z"/>
 <path d="m841.5 652.22v-104.48h-63.891c-7.6875 0-15.094 3.0469-20.484 8.5312l-57.281 57.281v128.53l81.469-81.469v-0.046875c5.4375-5.2969 12.75-8.2969 20.344-8.3438z"/>
 <path d="m864.71 547.74h139.31v104.48h-139.31z"/>
 <path d="m1027.2 547.74h166.03v104.48h-166.03z"/>
 <path d="m6.75 237.05h184.6v104.48h-184.6z"/>
 <path d="m214.55 237.05h139.31v104.48h-139.31z"/>
 <path d="m466.92 237.05h-89.812v104.48h65.766c7.5938 0.046875 14.906 3.0469 20.344 8.3438l53.203 53.203v-128.58l-28.969-28.969c-5.4375-5.4375-12.844-8.4844-20.531-8.4844z"/>
 <path d="m539.63 297.74v128.53l99.797 99.797 63.891-64.219-22.031-22.078v-0.42188z"/>
 <path d="m705.98 464.06-0.32812-0.32812v0.5625c0.09375-0.09375 0.1875-0.14062 0.32812-0.23438z"/>
</svg>
