<?xml version="1.0" encoding="UTF-8"?>
<svg width="1200pt" height="1200pt" version="1.1" viewBox="0 0 1200 1200" xmlns="http://www.w3.org/2000/svg">
 <path d="m309.8 774.13c-0.12109 0.60156-0.10938 1.2461-0.20313 1.8594 1.7383 1.332 3.3477 2.7734 5.0039 4.1875 0.61328 0.52734 1.2461 1.0078 1.8477 1.5469 2.1602 1.9453 4.1992 3.9844 6.1914 6.0703 0.49219 0.51562 1.0078 0.99609 1.5 1.5234 1.957 2.125 3.7812 4.3438 5.5547 6.6133 0.46875 0.60156 0.97266 1.1641 1.4297 1.7656 1.6562 2.1953 3.1914 4.4883 4.6797 6.8047 0.49219 0.76953 1.0312 1.5 1.5117 2.2812 1.3438 2.207 2.5547 4.4883 3.7422 6.7812 0.50391 0.97266 1.0664 1.9219 1.5469 2.9141 1.0547 2.1953 1.9805 4.4766 2.8906 6.7422 0.46875 1.1641 1.0078 2.2812 1.4414 3.4688 0.85156 2.3398 1.5469 4.7383 2.2578 7.1406 0.34766 1.1758 0.76953 2.3164 1.0781 3.5039 0.9375 3.625 1.7031 7.2969 2.2812 11.027 0.28906 1.8594 0.52734 3.7305 0.71875 5.6055 0.3125 0.13281 0.60156 0.32422 0.92578 0.44531 0.96094 0.37109 1.957 0.63672 2.9297 0.96094 2.5312 0.86328 5.1016 1.6211 7.7031 2.1836 1.2969 0.28906 2.5938 0.51562 3.8984 0.71875 2.4492 0.39453 4.9219 0.63672 7.4141 0.76953 1.2617 0.070313 2.5078 0.17969 3.7812 0.17969 3.6836 0 7.3906-0.19141 11.113-0.76953 4.3438-0.67188 8.4727-1.8477 12.48-3.2383 0.73047-0.25391 1.4297-0.5625 2.1484-0.83984 4.6094-2.3047 9.2656-4.7148 13.969-7.1992 3.0234-2.0156 5.9648-4.1406 8.6289-6.5625 0.73047-0.66016 1.3555-1.4297 2.0508-2.1133 2.2422-2.2188 4.3555-4.5703 6.2891-7.0664 0.85156-1.1055 1.668-2.2422 2.4609-3.3945 1.6562-2.4102 3.1328-4.9336 4.4766-7.5234 0.58984-1.1406 1.2617-2.2305 1.7891-3.4062 1.6328-3.6016 2.9883-7.332 4.0195-11.195 0.9375-3.5156 1.3906-7.1055 1.7773-10.691 0.12109-1.1523 0.44531-2.2578 0.51563-3.4336 0.046874-0.74219 0.011718-1.3555 0.023437-2.0391 0.13281-4.3086 0-8.6758-0.68359-13.094v-0.023437c-0.68359-4.3906-1.8594-8.5547-3.2773-12.613-0.49219-1.4297-1.1289-2.7344-1.6797-4.1055-1.1289-2.6641-2.3633-5.2578-3.7812-7.7383-0.78125-1.3555-1.5859-2.7109-2.4375-3.9961-1.6562-2.4961-3.4805-4.8477-5.4102-7.1055-0.81641-0.9375-1.5234-1.9062-2.3867-2.8203-2.7109-2.832-5.6406-5.4492-8.7617-7.8008-1.2969-0.98438-2.6875-1.7383-4.0195-2.6172-2.1602-1.4141-4.3555-2.7852-6.6719-3.9727-1.7148-0.875-3.457-1.5977-5.207-2.3164-2.1484-0.88672-4.332-1.6797-6.5625-2.3516-1.8008-0.55078-3.6016-1.0781-5.4375-1.4883-8.3867-1.8477-17.207-2.3867-26.195-1.0078-30.508 4.6992-53.824 28.027-59.355 57.43z"/>
 <path d="m171.96 846.73c-0.19141 0.70703-0.43359 1.4141-0.61328 2.125-0.96094 3.9961-1.5703 8.1016-1.8359 12.277-0.046875 0.74219-0.046875 1.4883-0.070313 2.2305-0.13281 4.332 0 8.7227 0.68359 13.176 1.5859 10.246 5.4258 20.016 11.195 28.656 5.5781 0.35938 11.16 0.60156 16.754 0.73047 0.12109 0 0.23828 0.011719 0.35938 0.011719 35.258 0.78125 70.934-3.1445 108.9-13.309 1.5117-3.6953 2.6641-7.5234 3.5391-11.398 0.20312-0.91016 0.35938-1.8242 0.52734-2.7344 0.61328-3.2891 0.98437-6.6133 1.1289-9.9609 0.035156-0.88672 0.13281-1.7656 0.14453-2.6406 0.023437-3.7422-0.19141-7.5117-0.76953-11.219 0-0.011719 0-0.023437-0.011719-0.035156-0.70703-4.5586-1.9062-8.9023-3.4062-13.094-0.15625-0.43359-0.27734-0.88672-0.44531-1.3203-1.5117-3.9961-3.4062-7.7773-5.5664-11.375-0.28906-0.49219-0.57422-0.98437-0.88672-1.4766-2.2422-3.5391-4.7656-6.8633-7.5586-9.9258-0.32422-0.35938-0.67188-0.70703-1.0078-1.0547-2.9531-3.1094-6.1211-5.9883-9.5625-8.5195-0.12109-0.085938-0.25391-0.16797-0.37109-0.25391-2.8203-2.0391-5.8789-3.7188-8.9648-5.3398-1.7773-0.9375-3.5742-1.7773-5.4258-2.5547-11.832-4.9922-25.043-7.0938-38.641-4.9922-28.766 4.418-50.824 25.562-58.094 51.996z"/>
 <path d="m891.09 584.65c5.543-5.8086 10.945-11.629 16.379-17.449 4.0195-4.2969 8.1016-8.6055 12.059-12.898 5.7227-6.2148 11.27-12.422 16.848-18.637 3.5039-3.8984 7.0938-7.8125 10.535-11.699 6.5273-7.3672 12.852-14.699 19.152-22.031 2.3281-2.6992 4.7539-5.4258 7.0312-8.1133 8.4727-9.9492 16.715-19.836 24.719-29.641 2.5547-3.1328 4.9453-6.2031 7.4531-9.3242 5.3867-6.6836 10.789-13.379 15.949-19.98 3-3.8516 5.8086-7.6094 8.7227-11.426 4.4141-5.7617 8.8672-11.543 13.078-17.219 3.0117-4.0547 5.8086-8.0039 8.7109-12.012 3.8516-5.3164 7.7656-10.656 11.426-15.875 2.8438-4.0547 5.4844-8.0039 8.207-12 3.4219-5.0039 6.875-10.031 10.105-14.941 2.6289-3.9961 5.0391-7.8711 7.5352-11.785 3.0117-4.7266 6.0352-9.4688 8.8438-14.09 2.3516-3.8516 4.5-7.5977 6.6953-11.363 2.6172-4.4766 5.2188-8.9414 7.6211-13.285 2.0391-3.6953 3.8984-7.2734 5.7852-10.859 2.1953-4.1992 4.3789-8.375 6.3594-12.434 1.7031-3.4922 3.2383-6.8633 4.7891-10.246 1.7773-3.9102 3.5039-7.7773 5.0625-11.531 1.3438-3.2539 2.543-6.4062 3.707-9.5391 0.78125-2.0742 1.4414-4.0781 2.1367-6.1094-52.176 34.668-93.852 78.145-137.53 129.5-0.046875 0.046875-0.070313 0.10938-0.10938 0.16797-14.652 17.23-29.52 35.316-45.07 54.227-0.71875 0.875-1.4883 1.8008-2.2188 2.6875-11.004 13.379-22.441 27.266-34.391 41.555-0.625 0.74219-1.1992 1.4531-1.8242 2.1953-0.070312 0.085938-0.15625 0.16797-0.22656 0.25391-0.27734 0.32422-0.55078 0.66016-0.81641 0.98438-0.035156 0.035157-0.058594 0.070313-0.085938 0.10938-0.14453 0.17969-0.28906 0.33594-0.43359 0.51562-12.625 15.059-25.848 30.574-39.898 46.586-2.4727 2.8203-4.8945 5.5078-7.332 8.2695-3.5742 4.0312-7.1289 8.0508-10.812 12.133-4.0781 4.5234-8.1484 8.9648-12.203 13.379-2.1133 2.3047-4.1875 4.5977-6.3477 6.9102-1.0781 1.1641-2.1719 2.3867-3.2539 3.5508-0.070312 0.085938-0.19141 0.12109-0.26562 0.20312-7.2344 7.7773-14.723 15.648-22.402 23.617-0.085938 0.085937-0.13281 0.20312-0.21484 0.28906-0.96094 0.99609-1.9805 1.9805-2.9531 2.9766-19.68 20.316-40.836 41.195-63.77 62.652-0.68359 0.63672-1.3438 1.2969-2.0156 1.9336-0.085937 0.070313-0.17969 0.12109-0.26562 0.19141-19.598 18.266-40.43 36.91-62.785 55.957l-0.011719 0.011719c-0.035156 0.035156-0.070312 0.058593-0.10937 0.097656-11.09 9.4453-22.43 18.938-34.262 28.559-0.10938 0.097656-0.21484 0.17969-0.32422 0.26562-0.023438 0.011719-0.046875 0.023438-0.070312 0.046876-9.6836 7.8711-19.609 15.793-29.82 23.785-22.117 17.293-43.285 33.047-63.719 47.52-0.30078 0.22656-0.625 0.43359-0.92578 0.66016-39.938 28.234-76.824 51.238-111.42 69.77-1.4531 0.96094-2.9141 1.9219-4.4141 2.8203-0.76953 0.45703-1.5586 0.85156-2.3281 1.2852-2.9766 1.6797-6.0234 3.2266-9.168 4.6328-1.1172 0.50391-2.2305 0.97266-3.3594 1.4414-1.0547 0.43359-2.0625 0.94922-3.1445 1.3438-32.258 15.91-62.555 27.875-91.512 36.406-0.26563 0.085938-0.46875 0.30078-0.73047 0.38281-8.8438 2.5781-17.676 4.7656-26.508 6.7695-2.0273 0.45703-4.0664 0.92578-6.0977 1.3555-1.1641 0.25391-2.3398 0.51563-3.5039 0.75781-2.8438 0.57422-5.6875 1.0938-8.5312 1.6094-3.6953 0.68359-7.3906 1.3203-11.051 1.8945-1.1992 0.17969-2.3867 0.42188-3.5898 0.58984-0.71875 0.10938-1.4414 0.16797-2.1602 0.27734-5.3984 0.76953-10.766 1.4414-16.105 1.9805-0.42188 0.035156-0.82812 0.097656-1.2344 0.14453-3.3711 0.33594-6.7422 0.60156-10.094 0.85156-0.58984 0.046875-1.1758 0.085938-1.7656 0.13281-8.9883 0.63672-17.914 0.97266-26.797 1.0195h-1.7148-0.046875c-0.30078 0-0.58984 0.035156-0.875 0.035156-0.46875 0-0.94922-0.023437-1.4141-0.035156-5.0625-0.023437-10.117-0.13281-15.156-0.32422-0.64844-0.023437-1.2852-0.023437-1.9336-0.058594-0.42188-0.011718-0.82812-0.035156-1.2461-0.058593-6.1562-0.28906-12.301-0.67188-18.445-1.1992-0.046876 0-0.10938 0-0.15625-0.011719-0.023438 0-0.035157-0.011719-0.058594-0.011719-34.367-2.9766-68.594-9.6367-104.11-18.625 0.32422 0.20313 0.63672 0.42188 0.94922 0.625 1.1172 0.70703 2.2578 1.4023 3.3711 2.1133 3.2031 2.0156 6.4336 4.0078 9.6836 5.9531 1.5117 0.89844 3.0469 1.7891 4.5703 2.6758 3 1.7539 6.0352 3.457 9.0977 5.1367 1.5977 0.875 3.2031 1.7539 4.8242 2.6172 3.3125 1.7539 6.6836 3.457 10.094 5.1133 1.3555 0.66016 2.6758 1.3438 4.043 1.9922 4.8125 2.2812 9.707 4.4766 14.746 6.5391 0.40625 0.16797 0.85156 0.3125 1.2617 0.49219 4.5703 1.8594 9.2539 3.6133 14.027 5.2812 1.6211 0.5625 3.3008 1.0781 4.957 1.6211 3.707 1.2109 7.4648 2.375 11.305 3.4688 1.9336 0.55078 3.8867 1.0664 5.8555 1.5859 3.8398 1.0078 7.7656 1.9219 11.746 2.7969 1.9453 0.42188 3.875 0.86328 5.8555 1.2617 4.8008 0.94922 9.7422 1.7773 14.785 2.5078 1.2227 0.17969 2.3867 0.40625 3.6367 0.57422 6.3477 0.86328 12.887 1.5352 19.645 2.0508 1.5586 0.12109 3.2148 0.15625 4.8008 0.26563 5.2305 0.32422 10.559 0.5625 16.043 0.67187 2.3984 0.046876 4.8711 0.035157 7.332 0.035157 4.9453 0 9.9844-0.070313 15.145-0.25391 2.6758-0.097656 5.3633-0.19141 8.1133-0.33594 5.4375-0.28906 11.039-0.70703 16.727-1.1992 2.5312-0.21484 5.0039-0.38281 7.5859-0.64844 8.3047-0.83984 16.801-1.8594 25.656-3.168 8.6289-1.2734 17.473-3.0352 26.508-5.207 3.0234-0.73047 6.1914-1.7656 9.2656-2.5938 6.0859-1.6445 12.156-3.2383 18.395-5.2422 3.793-1.2227 7.7148-2.7461 11.555-4.1055 5.6875-2.0039 11.352-3.9375 17.16-6.2266 4.1992-1.6562 8.5078-3.5898 12.77-5.3867 5.5938-2.3633 11.172-4.6797 16.859-7.2852 4.5-2.0625 9.0703-4.3555 13.633-6.5625 5.5938-2.7109 11.16-5.375 16.824-8.3047 4.6914-2.4258 9.457-5.0508 14.195-7.6211 5.6289-3.0469 11.258-6.0703 16.945-9.3125 4.8477-2.7617 9.7305-5.6758 14.617-8.5664 5.6758-3.3594 11.363-6.7188 17.09-10.262 4.957-3.0586 9.9375-6.2539 14.93-9.4453 5.7227-3.6602 11.461-7.332 17.219-11.16 5.0391-3.3359 10.094-6.7812 15.156-10.234 5.7617-3.9375 11.531-7.9062 17.316-11.988 5.0898-3.5898 10.176-7.2461 15.266-10.934 5.7852-4.1875 11.566-8.4258 17.363-12.73 5.1367-3.8281 10.285-7.7148 15.422-11.641 5.7617-4.3906 11.52-8.8438 17.293-13.355 5.1484-4.0312 10.297-8.1016 15.445-12.215 5.7617-4.6094 11.52-9.2891 17.27-13.992 5.125-4.1992 10.234-8.4102 15.336-12.684 5.7461-4.8008 11.473-9.6719 17.195-14.555 5.0742-4.3438 10.141-8.6875 15.191-13.094 5.6992-4.9688 11.375-9.9961 17.039-15.047 5.0039-4.4648 10.02-8.9141 15-13.43 5.6523-5.125 11.27-10.309 16.883-15.492 4.8945-4.5352 9.8047-9.0586 14.676-13.633 5.6172-5.2812 11.16-10.609 16.715-15.938 4.7539-4.5586 9.5273-9.1094 14.23-13.703 5.5547-5.4258 11.027-10.883 16.512-16.332 4.5977-4.5703 9.2266-9.1445 13.766-13.727 5.4844-5.5547 10.871-11.125 16.273-16.703 4.3281-4.5117 8.7461-9.0234 13.066-13.547z"/>
 <path d="m425.09 684.19c0.21484 0.097656 0.42188 0.21484 0.63672 0.3125 2.0625 0.92578 4.0781 1.9219 6.0977 2.9531 0.51562 0.26562 1.0664 0.49219 1.5859 0.76953 0.25391 0.13281 0.45703 0.3125 0.70703 0.44531 9.2383 5.0625 17.723 11.375 25.223 18.781 0.23828 0.23828 0.52734 0.43359 0.76953 0.67188 0.058594 0.070312 0.91016 0.91016 0.97266 0.97266 0.13281 0.13281 0.22656 0.30078 0.35938 0.43359 3.4336 3.5625 6.625 7.3438 9.5742 11.352 0.085937 0.10938 0.17969 0.20313 0.26562 0.3125 0.15625 0.21484 0.83984 1.2109 0.99609 1.4297 0.17969 0.26562 0.28906 0.50391 0.46875 0.75781 2.5781 3.707 4.957 7.5859 7.0938 11.617 0.085937 0.16797 0.22656 0.34766 0.3125 0.51562l0.81641 1.4883c0.035156 0.070313 0.070312 0.15625 0.10938 0.22656 0.57422 1.1523 1.0664 2.3516 1.6094 3.5273 0.67188 1.5 1.3555 3.0352 1.9805 4.6211 0.75781 1.8828 1.4648 3.793 2.125 5.7227 0.035156 0.097657 0.070312 0.17969 0.10938 0.28906l0.94922 2.9766c0.058594 0.20312 0.097657 0.35937 0.15625 0.5625 0.66016 2.1953 1.2969 4.4023 1.8242 6.6602 0.75781 3.0352 1.3672 5.9297 1.8125 8.7461 0.035157 0.25391 0.035157 0.49219 0.070313 0.74219 0.55078 3.7578 0.9375 7.5 1.1055 11.23 0.023438 0.48047 0.035157 1.5469 0.035157 1.9805 0.070312 2.0156 0.035156 4.2852-0.023438 6.5508-0.011719 0.49219 0.023438 0.99609 0 1.4883 1.5352-0.13281 3.1094-0.070313 4.6328-0.30078 4.3438-0.67188 8.5195-1.8242 12.59-3.2266 1.6445-0.57422 3.1797-1.3438 4.7656-2.0273 2.2812-0.98438 4.5469-2.0039 6.707-3.2148 1.8242-1.0195 3.5508-2.1719 5.2695-3.3477 1.7656-1.1992 3.4805-2.4844 5.125-3.8516 1.6562-1.3672 3.2891-2.7734 4.8242-4.2852 1.5859-1.5703 3.0469-3.2891 4.5-5.0273 1.3086-1.5703 2.6992-3.0703 3.875-4.7383 1.5859-2.2578 2.8672-4.668 4.1758-7.0547 1.7383-3.2031 3.2148-6.5391 4.4648-10.008 0.60156-1.6797 1.2969-3.3359 1.7773-5.0508 0.67188-2.4258 1.0664-4.957 1.4883-7.4766 0.3125-1.8828 0.64844-3.7578 0.80469-5.6641 0.14453-1.7031 0.21484-3.3945 0.25391-5.0742 0.035156-3.9102-0.046876-7.8359-0.66016-11.773 0-0.035156-0.011719-0.058593-0.023437-0.085937-0.66016-4.2227-1.7773-8.293-3.1328-12.254-0.52734-1.5117-1.1875-2.9531-1.8125-4.4141-0.99609-2.375-2.0898-4.6914-3.3242-6.9258-0.91016-1.6445-1.8711-3.2539-2.9023-4.8125-1.3203-1.9922-2.7969-3.8867-4.3203-5.7344-1.1523-1.4023-2.2188-2.8555-3.4805-4.1641-2.6992-2.8203-5.6172-5.4727-8.7969-7.8594-1.3203-0.99609-2.7969-1.7891-4.1875-2.6992-2.125-1.3789-4.2852-2.7227-6.5156-3.8633-1.8477-0.9375-3.7578-1.7539-5.6992-2.5312-1.9062-0.76953-3.8398-1.4414-5.7969-2.0391-2.1133-0.64844-4.2227-1.2734-6.4062-1.7148-8.2695-1.7031-16.824-2.1367-25.43-0.81641-21.352 3.25-39.711 15.922-50.508 33.898z"/>
 <path d="m129.49 882.8c-0.79297-5.125-1.0938-10.211-1.1875-15.254-0.011719-0.55078-0.13281-1.0938-0.13281-1.6445-23.328 7.5508-46.031 13.238-68.172 17.438 25.262 6.7305 49.57 12.301 73.535 16.246-1.7383-5.4805-3.1562-11.062-4.043-16.785z"/>
 <path d="m740.07 441.17c4.5703 1.2461 8.9766 2.8555 13.297 4.6445 0.70703 0.28906 1.4023 0.60156 2.1016 0.91016 3.6836 1.6211 7.2734 3.4062 10.754 5.3984 0.63672 0.35938 1.2734 0.68359 1.8945 1.0547 3.9102 2.3398 7.6914 4.8828 11.281 7.668 0.50391 0.38281 0.96094 0.82812 1.4531 1.2227 2.9531 2.375 5.7734 4.8945 8.4727 7.5469 0.91016 0.88672 1.8008 1.8008 2.6758 2.7227 2.4375 2.5547 4.7539 5.2305 6.9492 8.0156 0.57422 0.73047 1.2109 1.4297 1.7656 2.1836 2.6289 3.5156 5.0508 7.1875 7.2734 11.004 0.51562 0.88672 0.94922 1.8125 1.4414 2.7109 1.668 3.0586 3.1914 6.1914 4.5703 9.4062 0.52734 1.2227 1.043 2.4492 1.5234 3.6953 1.3555 3.4805 2.5312 7.043 3.5391 10.68 0.15625 0.57422 0.40625 1.1172 0.5625 1.6914 11.363-12.434 22.234-24.625 32.629-36.539 4.3203-4.957 8.6172-9.8984 13.055-15.07 0.58984-0.68359 1.1992-1.4141 1.7773-2.1016 4.5352-5.3164 9.1914-10.812 13.895-16.402-0.16797-2.0156-0.50391-3.9727-0.83984-5.9414-0.38281-2.207-0.66016-4.4648-1.2344-6.6016-0.625-2.3398-1.5469-4.5352-2.3867-6.7812-0.79297-2.0742-1.4883-4.2109-2.4609-6.1797-1.0312-2.1133-2.3398-4.043-3.5742-6.0234-1.1641-1.8828-2.2305-3.8398-3.5625-5.5938-1.3555-1.7891-2.9531-3.3594-4.4648-5.0156-1.5469-1.6914-3-3.4805-4.7031-5.0156-1.5-1.3555-3.2031-2.4492-4.8125-3.6719-2.0039-1.5234-3.9375-3.1562-6.1094-4.4648-1.4141-0.85156-2.9883-1.4414-4.4766-2.1953-2.5781-1.3203-5.1133-2.7227-7.8711-3.7305-1.1289-0.40625-2.3516-0.5625-3.4922-0.92578-3.2539-1.0078-6.5039-2.0156-9.9258-2.543-4.5977-0.70703-9.3125-1.0078-14.148-0.78125-32.898 1.2891-59.656 24.316-66.848 55.023z"/>
 <path d="m995.65 314.84c32.867-36.781 66.133-69.277 104.95-97.355-35.039 7.8711-82.621 25.812-138.41 57.539 13.988 10.418 25.496 24.012 33.453 39.816z"/>
 <path d="m527.7 616.15c0.058593 0.023437 0.10938 0.046875 0.15625 0.070312 4.3789 1.7266 8.6641 3.7305 12.828 6.0352 0.17969 0.10938 0.37109 0.19141 0.5625 0.30078 4.0938 2.2812 8.1133 4.7266 11.953 7.5469 3.9375 2.8789 7.5586 6.0469 11.027 9.3477 0.25391 0.23828 0.49219 0.49219 0.74219 0.73047 3.2539 3.1445 6.3008 6.457 9.1211 9.9258 0.14453 0.17969 0.28906 0.34766 0.43359 0.52734 5.9414 7.3906 10.906 15.48 14.797 24.121 0.25391 0.5625 0.46875 1.1406 0.71875 1.7031 1.5352 3.5742 2.8789 7.2227 4.043 10.969 0.32422 1.0195 0.64844 2.0273 0.94922 3.0469 1.2344 4.3906 2.293 8.8555 3 13.441 0 0.023437 0 0.058593 0.011719 0.085937 0.42188 2.7109 0.71875 5.4609 0.9375 8.2188 2.3047-0.12109 4.6328-0.10938 6.9102-0.45703 6.2773-0.97266 12.371-2.7734 18.18-5.3398 1.5234-1.2461 2.9648-2.4727 4.4766-3.707 8.7227-7.1641 17.305-14.293 25.609-21.348 2.3516-3.4336 4.2852-7.0664 5.9883-10.789 0.63672-1.4023 1.1172-2.8555 1.6562-4.2969 0.875-2.3047 1.6797-4.6328 2.3047-7.0078 0.50391-1.9062 0.89844-3.8281 1.2461-5.7734 0.34766-1.9336 0.57422-3.875 0.75781-5.8438 0.20312-2.207 0.38281-4.4141 0.38281-6.6602 0-3.6484-0.097657-7.2969-0.66016-10.969v-0.070312c-0.011719-0.070313-0.035156-0.13281-0.046875-0.20313-0.64844-4.1289-1.7539-8.1133-3.0703-11.988-0.45703-1.3438-1.0195-2.6523-1.5469-3.9609-1.0664-2.6172-2.293-5.1602-3.6484-7.6211-0.71875-1.2969-1.4023-2.6172-2.207-3.8516-2.1484-3.3594-4.4883-6.5898-7.1875-9.5508-0.46875-0.52734-1.043-0.96094-1.5234-1.4648-2.4609-2.543-5.1133-4.9219-7.9688-7.1172-1.0312-0.80469-2.1133-1.5469-3.2031-2.293-2.5664-1.7656-5.2422-3.3242-7.9805-4.7266-1.1406-0.57422-2.2305-1.2227-3.3945-1.7539-3.6719-1.6445-7.4531-2.9883-11.328-3.9844-1.1875-0.30078-2.4102-0.42187-3.6016-0.67187-2.832-0.5625-5.6992-0.99609-8.6055-1.2227-1.6445-0.12109-3.3125-0.17969-4.9922-0.19141-3.8281-0.023437-7.6562 0.046875-11.52 0.63672-26.117 4.0352-47.465 22.109-56.309 46.156z"/>
 <path d="m825.96 346.09c0.10937 0.011719 0.21484 0.046875 0.32422 0.070312 9.4336 1.3672 18.48 3.9727 27.035 7.5586 0.42188 0.17969 0.82813 0.35938 1.2461 0.53906 4.0547 1.7656 8.0039 3.7305 11.809 5.9531 0.14453 0.085937 0.28906 0.15625 0.43359 0.23828 7.9453 4.668 15.238 10.285 21.805 16.715 0.45703 0.45703 0.89844 0.92578 1.3555 1.3789 2.7109 2.7461 5.2812 5.6289 7.7031 8.6406 0.49219 0.60156 0.98438 1.1875 1.4648 1.8008 5.3867 6.9961 9.9727 14.617 13.633 22.777 0.15625 0.34766 0.37109 0.67188 0.52734 1.0312 2.7617-3.3477 5.4961-6.6719 8.207-9.9727 1.4023-1.7031 2.8438-3.457 4.2344-5.1484 13.477-16.402 26.438-32.148 39.203-47.316-0.070312-0.30078-0.19141-0.58984-0.26562-0.89844-0.75781-3.3359-1.7891-6.5391-3-9.6719-0.61328-1.5586-1.332-3.0703-2.0391-4.5703-0.83984-1.7891-1.7383-3.5391-2.7109-5.2422-0.94922-1.6445-1.9062-3.2656-2.9766-4.8125-1.0078-1.4766-2.125-2.8555-3.2266-4.2461-1.1758-1.4766-2.3047-3-3.6016-4.3906-2.2812-2.4258-4.7148-4.7031-7.3086-6.793-1.2461-1.0078-2.6172-1.8594-3.9258-2.7852-1.7773-1.2461-3.5508-2.4609-5.4375-3.5508-1.3789-0.79297-2.8086-1.5117-4.2461-2.207-2.0273-0.98438-4.1055-1.8711-6.2148-2.6641-1.4297-0.53906-2.8438-1.0938-4.3203-1.5352-7.4531-2.2695-15.348-3.457-23.543-3.1445-31.93 1.2578-58.066 22.941-66.164 52.246z"/>
 <path d="m640.81 534.02c-0.26562 1.1406-0.55078 2.2695-0.75781 3.4336 0.16797 0.070313 0.3125 0.16797 0.48047 0.25391 7.3555 3.2656 14.449 7.2734 21.098 12.145 0.45703 0.32422 0.85156 0.70703 1.2969 1.043 1.0312 0.78125 2.0039 1.6211 3 2.4375 2.4258 1.9688 4.7773 3.9961 7.0078 6.1328 0.875 0.83984 1.7383 1.6914 2.5938 2.5547 2.4727 2.5078 4.8008 5.125 7.0078 7.8359 0.45703 0.55078 0.9375 1.0781 1.3672 1.6562 5.4258 6.9375 9.9961 14.473 13.656 22.5 0.33594 0.74219 0.625 1.5 0.94922 2.2578 1.3672 3.1797 2.5781 6.4062 3.6484 9.7188 0.38281 1.1875 0.75781 2.375 1.1055 3.5742 0.91016 3.1797 1.668 6.4219 2.3164 9.6953 0.14453 0.76953 0.40625 1.4883 0.53906 2.2578 2.375 0.14453 4.7383 0.34766 7.1406 0.22656 2.8555-0.10938 5.7734-0.42188 8.6875-0.89844 0.66016-0.625 1.3555-1.2461 2.0039-1.8711 9.1797-8.6406 18.289-17.363 27.254-26.16 1.6328-1.6094 3.168-3.1797 4.7891-4.7891 6.9375-6.8633 13.789-13.754 20.543-20.664 1.4883-1.5117 2.9141-3.0117 4.3789-4.5234 0.68359-4.0938 1.043-8.4492 1.0312-13.055v-0.035156c0-0.91016 0.035156-1.8242 0.097656-2.7227-0.20312-4.7656-0.875-9.3945-1.957-13.859-0.21484-0.88672-0.61328-1.7148-0.85156-2.5938-0.99609-3.5156-2.1367-6.9844-3.6367-10.262-0.60156-1.3086-1.3906-2.5078-2.0625-3.7812-1.4023-2.6406-2.8555-5.2578-4.5703-7.6914-1.0547-1.5-2.2812-2.8555-3.4453-4.2617-1.5977-1.9336-3.2148-3.8516-5.0039-5.6172-1.5703-1.5352-3.2656-2.9297-4.9688-4.3086-1.6211-1.3203-3.2539-2.6289-4.9922-3.8047-2.0898-1.4141-4.2734-2.6758-6.5156-3.875-1.5586-0.83984-3.1328-1.6211-4.7539-2.3398-2.5312-1.1172-5.1484-2.0742-7.8242-2.9023-1.5586-0.48047-3.1328-0.88672-4.7266-1.2617-2.7734-0.64844-5.5938-1.1406-8.4727-1.4531-3.5156-0.37109-7.0312-0.76953-10.68-0.60156h-0.035157c-32.672 1.3086-59.574 24.984-66.738 55.609z"/>
</svg>
