<?xml version="1.0" encoding="UTF-8"?>
<svg width="1200pt" height="1200pt" version="1.1" viewBox="0 0 1200 1200" xmlns="http://www.w3.org/2000/svg">
 <path d="m539.96 120.99v1.1992c0 5.1055 1.8008 9.6055 3.9023 13.809v0.60156c2.7031 4.2031 6.3047 7.5039 10.508 10.207h0.60156c2.7031 1.8008 5.4023 3.0039 8.4062 3.6016 6.9062 1.8008 13.809 3.6016 20.715 5.1055 63.648 146.21 77.758 332.05 91.27 514.89 14.711 200.55 27.621 398.1 114.98 529.6 75.656-6.9062 123.69-31.523 123.69-31.523 13.211-6.6055 19.516-21.617 15.312-35.727-17.715-57.945-43.832-108.08-81.062-146.81 34.824-70.852 24.918-150.71-5.4023-234.18 33.926-90.066 21.316-171.13-28.223-244.38 30.922-82.863 13.512-154.92-36.328-219.46-10.809-45.633-26.418-82.562-46.836-111.08 20.113-2.4023 38.129-8.707 53.742-19.215 23.719-16.512 43.234-43.832 54.641-89.168 2.7031-10.508-0.60156-21.918-8.707-29.422s-19.516-9.9062-30.023-6.3047c-29.422 9.9062-54.641-2.1016-79.258-9.3086-28.82-8.707-56.742-13.809-86.164-3.9023-17.113 5.7031-35.125 16.512-54.039 36.629-23.418-34.227-63.348-50.742-98.176-55.242-27.922-3.6016-75.055 1.8008-114.09 18.914-29.422 12.91-54.039 32.426-66.648 57.344-15.012 30.023-9.0078 66.051 0 103.28 8.1055 33.023 20.113 68.75-19.816 95.473-13.809 9.3086-17.414 27.922-8.4062 41.73 9.3086 13.809 27.922 17.414 41.73 8.4062 58.543-39.027 60.047-87.066 50.438-136-3.6016-18.312-9.3086-36.629-12.008-54.039-1.8008-11.41-3.0039-22.215 1.8008-31.523 6.6055-13.512 21.316-22.516 36.926-29.422 28.52-12.309 62.445-16.812 82.562-14.41 27.621 3.6016 63.648 18.914 63.648 60.344zm144.11 997.65c-13.809 14.109-33.023 23.117-54.039 23.117-8.4062 0-16.211-1.1992-23.719-3.9023 35.125 32.723 73.254 54.039 113.18 61.246-13.512-25.219-25.219-51.938-35.125-80.461zm-54.039-66.949c8.4062 0 15.012 6.6055 15.012 15.012s-6.6055 15.012-15.012 15.012-15.012-6.6055-15.012-15.012 6.6055-15.012 15.012-15.012zm12.309-106.88c-18.914 28.223-51.039 46.836-87.367 46.836-20.414 0-39.629-6.0039-55.844-15.91 10.809 24.918 22.215 48.035 34.824 69.652 7.207 12.008 14.41 23.418 21.918 34.227-0.60156-4.2031-1.1992-8.4062-1.1992-12.609 0-41.43 33.625-75.055 75.055-75.055 7.207 0 14.41 1.1992 21.316 3.0039-3.3008-16.512-6.0039-33.023-8.707-49.836zm-87.367-103.28c24.918 0 45.035 20.113 45.035 45.035 0 24.918-20.113 45.035-45.035 45.035-24.918 0-45.035-20.113-45.035-45.035 0-24.918 20.113-45.035 45.035-45.035zm-123.69-147.11c4.8047 54.039 13.809 105.68 25.52 154.02 15.312-39.027 53.441-66.949 97.875-66.949 27.32 0 52.238 10.508 70.852 27.621-3.3008-36.629-6.3047-74.156-9.0078-111.68-18.012 32.125-52.238 54.039-91.867 54.039-39.629 0-75.957-23.117-93.672-57.043zm93.672-93.07c24.918 0 45.035 20.113 45.035 45.035 0 24.918-20.113 45.035-45.035 45.035-24.918 0-45.035-20.113-45.035-45.035 0-24.918 20.113-45.035 45.035-45.035zm-90.066-141.11c-6.0039 50.137-8.4062 99.676-7.8047 148.31 15.312-39.328 53.441-67.25 97.875-67.25 33.926 0 63.949 15.91 83.164 40.832-2.7031-33.926-5.7031-67.852-9.3086-101.48-18.914 18.914-45.035 30.324-73.855 30.324-38.43 0-71.754-20.414-90.066-51.039zm90.066-99.074c24.918 0 45.035 20.113 45.035 45.035 0 24.918-20.113 45.035-45.035 45.035-24.918 0-45.035-20.113-45.035-45.035 0-24.918 20.113-45.035 45.035-45.035zm-64.848-37.828c17.715-14.109 40.23-22.215 64.848-22.215 16.812 0 32.723 3.9023 46.535 10.809-12.609-55.543-29.723-107.78-52.84-154.92-24.918 54.039-44.133 109.88-58.543 166.32z" fill-rule="evenodd"/>
</svg>
