<?xml version="1.0" encoding="UTF-8"?>
<svg width="1200pt" height="1200pt" version="1.1" viewBox="0 0 1200 1200" xmlns="http://www.w3.org/2000/svg">
 <path d="m609.08 256.15c0 211.6-282.31 521.44-14.859 687.7 0-272.06 274.88-574.34 14.859-687.7zm37.145 128.47c24.617 0 44.574 20.301 44.574 45.344s-19.957 45.344-44.574 45.344c-24.617 0-44.574-20.301-44.574-45.344s19.957-45.344 44.574-45.344zm-29.719 113.36c24.617 0 44.574 20.301 44.574 45.344s-19.957 45.344-44.574 45.344c-24.617 0-44.574-20.301-44.574-45.344s19.957-45.344 44.574-45.344zm-44.574 113.36c24.617 0 44.574 20.301 44.574 45.344 0 25.043-19.957 45.344-44.574 45.344-24.617 0-44.574-20.301-44.574-45.344 0-25.043 19.957-45.344 44.574-45.344zm-22.289 113.36c24.617 0 44.574 20.301 44.574 45.344 0 25.043-19.957 45.344-44.574 45.344-24.617 0-44.574-20.301-44.574-45.344 0-25.043 19.957-45.344 44.574-45.344z"/>
</svg>
