<?xml version="1.0" encoding="UTF-8"?>
<svg width="1200pt" height="1200pt" version="1.1" viewBox="0 0 1200 1200" xmlns="http://www.w3.org/2000/svg">
 <path d="m600 442.22c87.141 0 157.78 70.641 157.78 157.78s-70.641 157.78-157.78 157.78-157.78-70.641-157.78-157.78 70.641-157.78 157.78-157.78zm-407.26 347.21c46.734-73.547 144.28-95.297 217.82-48.562 73.547 46.734 95.297 144.28 48.562 217.82s-144.28 95.297-217.82 48.562c-73.594-46.734-95.297-144.28-48.562-217.82zm574.18-579.32c63.984-59.156 163.82-55.266 222.98 8.7188 59.156 63.984 55.266 163.82-8.7188 222.98-63.984 59.156-163.82 55.266-222.98-8.7188-59.156-63.984-55.266-163.82 8.7188-222.98zm398.53-175.55c-6.75-6.75-15.891-10.547-25.453-10.547h-265.92c-122.02 0.09375-231.98 73.594-278.76 186.28l-21.047 50.812c-7.2656 17.672-21.281 31.688-38.953 38.953l-50.812 21.047c-73.922 30.703-132.66 89.484-163.36 163.36l-21.047 50.812c-7.2656 17.672-21.281 31.688-38.953 38.953l-50.812 21.047c-112.73 46.828-186.19 156.79-186.32 278.76v265.97c0 19.875 16.125 36 36 36h265.97c122.02-0.09375 231.94-73.594 278.72-186.28l21.094-50.812c7.2656-17.672 21.281-31.641 38.953-38.906l50.812-21.047c73.922-30.75 132.66-89.531 163.36-163.45 0.28125-0.70312 21.141-50.812 21.141-50.812 7.2656-17.672 21.281-31.688 38.953-38.953l50.812-21.047c112.64-46.828 186.1-156.74 186.19-278.76v-265.92c0-9.5625-3.7969-18.703-10.547-25.453zm-61.453 291.37c-0.09375 92.906-56.062 176.63-141.79 212.26l-50.859 21.047c-35.344 14.531-63.422 42.656-77.906 78-7.875 19.078-21.047 50.672-21.094 50.812-23.391 56.25-68.109 100.97-124.36 124.36l-50.766 21.047c-35.344 14.531-63.469 42.562-78 77.906-7.875 19.078-19.875 47.906-20.906 50.391l-0.1875 0.42188c-35.625 85.781-119.3 141.74-212.21 141.84h-229.92v-229.92c0.09375-92.906 56.062-176.63 141.79-212.26l50.812-21.047c35.344-14.531 63.422-42.656 77.906-78l21.094-50.812c23.391-56.25 68.109-100.97 124.36-124.36l50.859-21.047c35.344-14.531 63.375-42.562 77.953-77.906 7.875-19.031 19.828-47.859 20.906-50.391l0.1875-0.42188c35.625-85.781 119.34-141.74 212.21-141.84h229.92z"/>
</svg>
