<?xml version="1.0" encoding="UTF-8"?>
<svg width="1200pt" height="1200pt" version="1.1" viewBox="0 0 1200 1200" xmlns="http://www.w3.org/2000/svg">
 <path d="m270 1059.4c5.625 22.5 43.125 33.75 18.75 39.375-22.5 5.625-46.875-7.5-54.375-30-5.625-22.5 7.5-46.875 30-54.375 24.375-5.625-1.875 22.5 5.625 45z"/>
 <path d="m388.12 973.12c-5.625-22.5 18.75-50.625-3.75-45s-37.5 30-30 54.375c5.625 22.5 30 37.5 54.375 30 20.625-5.625-15-16.875-20.625-39.375z"/>
 <path d="m521.25 860.62c-7.5-26.25 22.5-58.125-3.75-52.5-26.25 7.5-43.125 35.625-35.625 61.875 7.5 28.125 35.625 43.125 61.875 35.625 26.25-5.625-15-18.75-22.5-45z"/>
 <path d="m663.75 684.38c-9.375-33.75 28.125-75-5.625-65.625s-54.375 45-45 78.75 45 54.375 78.75 45c35.625-7.5-18.75-24.375-28.125-58.125z"/>
 <path d="m768.75 500.62c-9.375-31.875 26.25-69.375-5.625-60s-50.625 41.25-43.125 73.125c9.375 31.875 41.25 50.625 73.125 43.125 33.75-11.25-16.875-24.375-24.375-56.25z"/>
 <path d="m841.88 305.62c-5.625-22.5 18.75-48.75-3.75-43.125s-35.625 30-30 52.5 30 35.625 52.5 30-11.25-15-18.75-39.375z"/>
 <path d="m1010.6 256.88c-18.75-16.875-22.5-45-22.5-65.625-11.25 7.5-22.5 26.25-26.25 37.5l-11.25 33.75-16.875-31.875c-16.875-31.875-9.375-61.875 1.875-82.5-16.875-1.875-30-3.75-39.375-9.375-20.625 9.375-39.375 20.625-50.625 28.125-52.5 35.625-93.75 88.125-123.75 144.38-112.5 211.88-228.75 453.75-418.12 609.38-69.375 58.125-150 93.75-228.75 138.75 24.375 73.125 150 95.625 215.62 91.875 93.75-5.625 185.62-48.75 260.62-103.12 135-97.5 243.75-243.75 309.38-397.5 0-1.875 151.88-393.75 150-393.75zm-721.88 866.25c-30 7.5-63.75-15-73.125-50.625s7.5-73.125 37.5-80.625 63.75 15 73.125 50.625c11.25 37.5-5.625 73.125-37.5 80.625zm135-71.25c-37.5 9.375-78.75-16.875-90-61.875s9.375-88.125 46.875-99.375c37.5-9.375 78.75 16.875 90 61.875s-9.375 88.125-46.875 99.375zm148.12-99.375c-46.875 13.125-97.5-22.5-114.38-78.75-15-56.25 11.25-112.5 58.125-123.75 46.875-13.125 97.5 22.5 112.5 78.75 16.875 54.375-9.375 110.62-56.25 123.75zm136.88-165c-50.625 13.125-106.88-24.375-123.75-84.375s11.25-121.88 63.75-135c50.625-13.125 106.88 24.375 121.88 84.375 18.75 61.875-9.375 121.88-61.875 135zm101.25-200.62c-46.875 13.125-95.625-22.5-110.62-76.875s11.25-108.75 58.125-121.88 95.625 22.5 110.62 76.875c15 56.25-11.25 110.62-58.125 121.88zm73.125-198.75c-39.375 11.25-80.625-18.75-93.75-63.75-13.125-46.875 9.375-91.875 48.75-103.12s80.625 18.75 93.75 63.75c13.125 46.875-9.375 91.875-48.75 103.12z"/>
 <path d="m1106.2 48.75s-15 31.875-50.625 39.375c0 0-26.25-20.625-101.25 9.375 0 0-54.375 26.25-61.875-13.125 0 0-30 54.375 73.125 46.875 0 0-43.125 41.25-16.875 91.875 0 0 24.375-60 60-50.625 0 0-18.75 105 63.75 76.875 0 0-54.375-9.375-7.5-93.75 0 0 11.25-20.625 5.625-37.5 0 0 37.5-9.375 56.25-46.875z"/>
</svg>
